<svg xmlns="http://www.w3.org/2000/svg" width="1200" height="480" viewBox="0 0 1200 480"><rect width="100%" height="100%" fill="white"/><text x="600.0" y="48.349999999999994" text-anchor="middle" font-family="Arial,Noto Sans JP,Meiryo,sans-serif" font-size="31" font-weight="700" fill="#231F20">CPU側の64 bitから、必要な32 bitだけを選ぶ</text><rect x="245" y="110" width="410" height="95" fill="#CCD9F1" stroke="#231F20" stroke-width="2"/><text x="450.0" y="167.65" text-anchor="middle" font-family="Arial,Noto Sans JP,Meiryo,sans-serif" font-size="29" font-weight="400" fill="#231F20">上位32 bit  [63:32]</text><rect x="655" y="110" width="410" height="95" fill="#E5EBF8" stroke="#231F20" stroke-width="2"/><text x="860.0" y="167.65" text-anchor="middle" font-family="Arial,Noto Sans JP,Meiryo,sans-serif" font-size="29" font-weight="400" fill="#231F20">下位32 bit  [31:0]</text><text x="135.0" y="163.65" text-anchor="middle" font-family="Arial,Noto Sans JP,Meiryo,sans-serif" font-size="29" font-weight="700" fill="#231F20">PWDATA</text><polyline points="450,205 450,285 610,285" fill="none" stroke="#231F20" stroke-width="2"/><polygon points="610,285 598.0,290.0 598.0,280.0" fill="#231F20"/><polyline points="860,205 860,285 700,285" fill="none" stroke="#231F20" stroke-width="2"/><polygon points="700,285 712.0,280.0 712.0,290.0" fill="#231F20"/><rect x="595" y="250" width="120" height="85" fill="#77A3DC" stroke="#231F20" stroke-width="2"/><text x="655.0" y="301.6" text-anchor="middle" font-family="Arial,Noto Sans JP,Meiryo,sans-serif" font-size="26" font-weight="400" fill="#231F20">選択</text><polyline points="655,335 655,386" fill="none" stroke="#231F20" stroke-width="2"/><polygon points="655,386 650.0,374.0 660.0,374.0" fill="#231F20"/><rect x="390" y="385" width="530" height="70" fill="#FFFFFF" stroke="#231F20" stroke-width="2"/><text x="655.0" y="430.5" text-anchor="middle" font-family="Arial,Noto Sans JP,Meiryo,sans-serif" font-size="30" font-weight="400" fill="#231F20">CmdData  32 bit</text><text x="240.0" y="284.2" text-anchor="middle" font-family="Arial,Noto Sans JP,Meiryo,sans-serif" font-size="26" font-weight="400" fill="#231F20">0x10080004 → 上位</text><text x="240.0" y="318.0" text-anchor="middle" font-family="Arial,Noto Sans JP,Meiryo,sans-serif" font-size="26" font-weight="400" fill="#231F20">PADDR[2] = 1</text><text x="990.0" y="284.2" text-anchor="middle" font-family="Arial,Noto Sans JP,Meiryo,sans-serif" font-size="26" font-weight="400" fill="#231F20">0x10080000 → 下位</text><text x="990.0" y="318.0" text-anchor="middle" font-family="Arial,Noto Sans JP,Meiryo,sans-serif" font-size="26" font-weight="400" fill="#231F20">PADDR[2] = 0</text></svg>