<svg xmlns="http://www.w3.org/2000/svg" width="1200" height="470" viewBox="0 0 1200 470"><rect width="100%" height="100%" fill="white"/><text x="600.0" y="43.849999999999994" text-anchor="middle" font-family="Arial,Noto Sans JP,Meiryo,sans-serif" font-size="31" font-weight="700" fill="#231F20">説明用：回路は2 msで完了、sleepは5 ms後に戻る</text><text x="132.0" y="162.5" text-anchor="middle" font-family="Arial,Noto Sans JP,Meiryo,sans-serif" font-size="30" font-weight="400" fill="#231F20">sleepで待つ</text><polyline points="295,157 1160,157" fill="none" stroke="#231F20" stroke-width="2"/><polygon points="1160,157 1148.0,162.0 1148.0,152.0" fill="#231F20"/><polyline points="310,137 310,181" fill="none" stroke="#231F20" stroke-width="2"/><text x="310.0" y="216.6" text-anchor="middle" font-family="Arial,Noto Sans JP,Meiryo,sans-serif" font-size="26" font-weight="400" fill="#231F20">0 ms</text><polyline points="622,137 622,181" fill="none" stroke="#231F20" stroke-width="2"/><text x="622.0" y="216.6" text-anchor="middle" font-family="Arial,Noto Sans JP,Meiryo,sans-serif" font-size="26" font-weight="400" fill="#231F20">2 ms</text><polyline points="1090,137 1090,181" fill="none" stroke="#231F20" stroke-width="2"/><text x="1090.0" y="216.6" text-anchor="middle" font-family="Arial,Noto Sans JP,Meiryo,sans-serif" font-size="26" font-weight="400" fill="#231F20">5 ms</text><polyline points="622,99 622,135" fill="none" stroke="#1673C3" stroke-width="2"/><polygon points="622,135 617.0,123.0 627.0,123.0" fill="#1673C3"/><text x="623.0" y="80.8" text-anchor="middle" font-family="Arial,Noto Sans JP,Meiryo,sans-serif" font-size="28" font-weight="400" fill="#1673C3">回路が完了</text><text x="985.0" y="122.3" text-anchor="middle" font-family="Arial,Noto Sans JP,Meiryo,sans-serif" font-size="28" font-weight="400" fill="#231F20">CPUが完了を知る</text><rect x="628" y="140" width="458" height="34" fill="#E5EBF8" stroke="#231F20" stroke-width="2"/><text x="132.0" y="338.5" text-anchor="middle" font-family="Arial,Noto Sans JP,Meiryo,sans-serif" font-size="30" font-weight="400" fill="#231F20">続けて確認する</text><polyline points="295,333 1160,333" fill="none" stroke="#231F20" stroke-width="2"/><polygon points="1160,333 1148.0,338.0 1148.0,328.0" fill="#231F20"/><polyline points="310,313 310,357" fill="none" stroke="#231F20" stroke-width="2"/><text x="310.0" y="392.6" text-anchor="middle" font-family="Arial,Noto Sans JP,Meiryo,sans-serif" font-size="26" font-weight="400" fill="#231F20">0 ms</text><polyline points="622,313 622,357" fill="none" stroke="#231F20" stroke-width="2"/><text x="622.0" y="392.6" text-anchor="middle" font-family="Arial,Noto Sans JP,Meiryo,sans-serif" font-size="26" font-weight="400" fill="#231F20">2 ms</text><polyline points="1090,313 1090,357" fill="none" stroke="#231F20" stroke-width="2"/><text x="1090.0" y="392.6" text-anchor="middle" font-family="Arial,Noto Sans JP,Meiryo,sans-serif" font-size="26" font-weight="400" fill="#231F20">5 ms</text><polyline points="622,275 622,311" fill="none" stroke="#1673C3" stroke-width="2"/><polygon points="622,311 617.0,299.0 627.0,299.0" fill="#1673C3"/><text x="623.0" y="256.8" text-anchor="middle" font-family="Arial,Noto Sans JP,Meiryo,sans-serif" font-size="28" font-weight="400" fill="#1673C3">回路が完了</text><ellipse cx="310.0" cy="333.0" rx="4.0" ry="4.0" fill="#231F20" stroke="#231F20" stroke-width="2"/><ellipse cx="346.0" cy="333.0" rx="4.0" ry="4.0" fill="#231F20" stroke="#231F20" stroke-width="2"/><ellipse cx="382.0" cy="333.0" rx="4.0" ry="4.0" fill="#231F20" stroke="#231F20" stroke-width="2"/><ellipse cx="418.0" cy="333.0" rx="4.0" ry="4.0" fill="#231F20" stroke="#231F20" stroke-width="2"/><ellipse cx="454.0" cy="333.0" rx="4.0" ry="4.0" fill="#231F20" stroke="#231F20" stroke-width="2"/><ellipse cx="490.0" cy="333.0" rx="4.0" ry="4.0" fill="#231F20" stroke="#231F20" stroke-width="2"/><ellipse cx="526.0" cy="333.0" rx="4.0" ry="4.0" fill="#231F20" stroke="#231F20" stroke-width="2"/><ellipse cx="562.0" cy="333.0" rx="4.0" ry="4.0" fill="#231F20" stroke="#231F20" stroke-width="2"/><ellipse cx="598.0" cy="333.0" rx="4.0" ry="4.0" fill="#231F20" stroke="#231F20" stroke-width="2"/><ellipse cx="634.0" cy="333.0" rx="4.0" ry="4.0" fill="#231F20" stroke="#231F20" stroke-width="2"/><text x="934.5" y="274.9" text-anchor="middle" font-family="Arial,Noto Sans JP,Meiryo,sans-serif" font-size="27" font-weight="400" fill="#231F20">細かく確認するため、</text><text x="934.5" y="310.0" text-anchor="middle" font-family="Arial,Noto Sans JP,Meiryo,sans-serif" font-size="27" font-weight="400" fill="#231F20">完了後の待ちを減らせる</text><text x="600.0" y="448.95" text-anchor="middle" font-family="Arial,Noto Sans JP,Meiryo,sans-serif" font-size="27" font-weight="400" fill="#231F20">続けて確認する間はCPUを使う。待ち時間の改善と、CPU使用率の増加を一緒に評価する。</text></svg>