<svg xmlns="http://www.w3.org/2000/svg" width="1200" height="490" viewBox="0 0 1200 490"><rect width="100%" height="100%" fill="white"/><rect x="15" y="100" width="215" height="145" fill="#FFFFFF" stroke="#231F20" stroke-width="2"/><text x="122.5" y="163.8" text-anchor="middle" font-family="Arial,Noto Sans JP,Meiryo,sans-serif" font-size="29" font-weight="400" fill="#231F20">入力と</text><text x="122.5" y="201.5" text-anchor="middle" font-family="Arial,Noto Sans JP,Meiryo,sans-serif" font-size="29" font-weight="400" fill="#231F20">状態の更新</text><polyline points="230,172 254,172" fill="none" stroke="#231F20" stroke-width="2"/><polygon points="254,172 242.0,177.0 242.0,167.0" fill="#231F20"/><rect x="255" y="100" width="215" height="145" fill="#FFFFFF" stroke="#231F20" stroke-width="2"/><text x="362.5" y="163.8" text-anchor="middle" font-family="Arial,Noto Sans JP,Meiryo,sans-serif" font-size="29" font-weight="400" fill="#231F20">図形の指定と</text><text x="362.5" y="201.5" text-anchor="middle" font-family="Arial,Noto Sans JP,Meiryo,sans-serif" font-size="29" font-weight="400" fill="#231F20">命令の準備</text><polyline points="470,172 494,172" fill="none" stroke="#231F20" stroke-width="2"/><polygon points="494,172 482.0,177.0 482.0,167.0" fill="#231F20"/><rect x="495" y="100" width="215" height="145" fill="#FFFFFF" stroke="#231F20" stroke-width="2"/><text x="602.5" y="182.65" text-anchor="middle" font-family="Arial,Noto Sans JP,Meiryo,sans-serif" font-size="29" font-weight="400" fill="#231F20">命令の転送</text><polyline points="710,172 734,172" fill="none" stroke="#231F20" stroke-width="2"/><polygon points="734,172 722.0,177.0 722.0,167.0" fill="#231F20"/><rect x="735" y="100" width="215" height="145" fill="#E5EBF8" stroke="#231F20" stroke-width="2"/><text x="842.5" y="182.65" text-anchor="middle" font-family="Arial,Noto Sans JP,Meiryo,sans-serif" font-size="29" font-weight="400" fill="#231F20">描画と保存</text><polyline points="950,172 974,172" fill="none" stroke="#231F20" stroke-width="2"/><polygon points="974,172 962.0,177.0 962.0,167.0" fill="#231F20"/><rect x="975" y="100" width="215" height="145" fill="#E5EBF8" stroke="#231F20" stroke-width="2"/><text x="1082.5" y="163.8" text-anchor="middle" font-family="Arial,Noto Sans JP,Meiryo,sans-serif" font-size="29" font-weight="400" fill="#231F20">表示の</text><text x="1082.5" y="201.5" text-anchor="middle" font-family="Arial,Noto Sans JP,Meiryo,sans-serif" font-size="29" font-weight="400" fill="#231F20">切り替え</text><text x="355.0" y="319.4" text-anchor="middle" font-family="Arial,Noto Sans JP,Meiryo,sans-serif" font-size="34" font-weight="700" fill="#231F20">CPUで実行する処理</text><text x="960.0" y="319.4" text-anchor="middle" font-family="Arial,Noto Sans JP,Meiryo,sans-serif" font-size="34" font-weight="700" fill="#231F20">FPGAの周辺回路</text><polyline points="1190,172 1198,172 1198,400 5,400 5,172 15,172" fill="none" stroke="#231F20" stroke-width="2"/><polygon points="15,172 3.0,177.0 3.0,167.0" fill="#231F20"/><text x="590.0" y="382.65" text-anchor="middle" font-family="Arial,Noto Sans JP,Meiryo,sans-serif" font-size="29" font-weight="400" fill="#231F20">次の入力と状態更新へ</text></svg>