<svg xmlns="http://www.w3.org/2000/svg" width="1200" height="546" viewBox="0 0 1200 546"><rect width="100%" height="100%" fill="white"/><text x="600.0" y="37.2" text-anchor="middle" font-family="Arial,Noto Sans JP,Meiryo,sans-serif" font-size="32" font-weight="700" fill="#231F20">同じ「動いた」でも、確かめた場所を分ける</text><rect x="20" y="101" width="240" height="104" fill="#E5EBF8" stroke="#231F20" stroke-width="2"/><text x="140.0" y="144.0" text-anchor="middle" font-family="Arial,Noto Sans JP,Meiryo,sans-serif" font-size="30" font-weight="700" fill="#231F20">CPUと</text><text x="140.0" y="183.0" text-anchor="middle" font-family="Arial,Noto Sans JP,Meiryo,sans-serif" font-size="30" font-weight="700" fill="#231F20">命令の接続</text><rect x="335" y="101" width="240" height="104" fill="#E5EBF8" stroke="#231F20" stroke-width="2"/><text x="455.0" y="163.5" text-anchor="middle" font-family="Arial,Noto Sans JP,Meiryo,sans-serif" font-size="30" font-weight="700" fill="#231F20">描画回路</text><rect x="650" y="101" width="220" height="104" fill="#E5EBF8" stroke="#231F20" stroke-width="2"/><text x="760.0" y="144.0" text-anchor="middle" font-family="Arial,Noto Sans JP,Meiryo,sans-serif" font-size="30" font-weight="700" fill="#231F20">DDR3の</text><text x="760.0" y="183.0" text-anchor="middle" font-family="Arial,Noto Sans JP,Meiryo,sans-serif" font-size="30" font-weight="700" fill="#231F20">画像</text><rect x="945" y="101" width="235" height="104" fill="#E5EBF8" stroke="#231F20" stroke-width="2"/><text x="1062.5" y="144.0" text-anchor="middle" font-family="Arial,Noto Sans JP,Meiryo,sans-serif" font-size="30" font-weight="700" fill="#231F20">表示と</text><text x="1062.5" y="183.0" text-anchor="middle" font-family="Arial,Noto Sans JP,Meiryo,sans-serif" font-size="30" font-weight="700" fill="#231F20">映像出力</text><polyline points="260,153 332,153" fill="none" stroke="#231F20" stroke-width="2"/><polygon points="332,153 320.0,158.0 320.0,148.0" fill="#231F20"/><polyline points="575,153 647,153" fill="none" stroke="#231F20" stroke-width="2"/><polygon points="647,153 635.0,158.0 635.0,148.0" fill="#231F20"/><polyline points="870,153 942,153" fill="none" stroke="#231F20" stroke-width="2"/><polygon points="942,153 930.0,158.0 930.0,148.0" fill="#231F20"/><text x="297.5" y="96.55" text-anchor="middle" font-family="Arial,Noto Sans JP,Meiryo,sans-serif" font-size="23" font-weight="400" fill="#231F20">命令</text><text x="611.0" y="96.55" text-anchor="middle" font-family="Arial,Noto Sans JP,Meiryo,sans-serif" font-size="23" font-weight="400" fill="#231F20">画素</text><text x="908.0" y="96.55" text-anchor="middle" font-family="Arial,Noto Sans JP,Meiryo,sans-serif" font-size="23" font-weight="400" fill="#231F20">色</text><polyline points="140,205 140,306" fill="none" stroke="#231F20" stroke-width="2"/><polygon points="140,306 135.0,294.0 145.0,294.0" fill="#231F20"/><polyline points="760,205 760,257 587,257 587,306" fill="none" stroke="#231F20" stroke-width="2"/><polygon points="587,306 582.0,294.0 592.0,294.0" fill="#231F20"/><polyline points="1060,205 1060,306" fill="none" stroke="#231F20" stroke-width="2"/><polygon points="1060,306 1055.0,294.0 1065.0,294.0" fill="#231F20"/><rect x="15" y="310" width="350" height="150" fill="#FFFFFF" stroke="#1673C3" stroke-width="2"/><text x="190.0" y="356.3" text-anchor="middle" font-family="Arial,Noto Sans JP,Meiryo,sans-serif" font-size="28" font-weight="700" fill="#1673C3">待ち条件の回路試験</text><text x="190.0" y="424.75" text-anchor="middle" font-family="Arial,Noto Sans JP,Meiryo,sans-serif" font-size="25" font-weight="400" fill="#231F20">値・順番・個数を確認</text><rect x="425" y="310" width="325" height="150" fill="#FFFFFF" stroke="#1673C3" stroke-width="2"/><text x="587.5" y="356.3" text-anchor="middle" font-family="Arial,Noto Sans JP,Meiryo,sans-serif" font-size="28" font-weight="700" fill="#1673C3">画像の読み戻し</text><text x="587.5" y="424.75" text-anchor="middle" font-family="Arial,Noto Sans JP,Meiryo,sans-serif" font-size="25" font-weight="400" fill="#231F20">各画素を期待値と比較</text><rect x="825" y="310" width="360" height="150" fill="#FFFFFF" stroke="#1673C3" stroke-width="2"/><text x="1005.0" y="356.3" text-anchor="middle" font-family="Arial,Noto Sans JP,Meiryo,sans-serif" font-size="28" font-weight="700" fill="#1673C3">映像・ゲーム実行</text><text x="1005.0" y="424.75" text-anchor="middle" font-family="Arial,Noto Sans JP,Meiryo,sans-serif" font-size="25" font-weight="400" fill="#231F20">画面の動きと終了を確認</text><text x="600.0" y="519.6" text-anchor="middle" font-family="Arial,Noto Sans JP,Meiryo,sans-serif" font-size="26" font-weight="400" fill="#231F20">回路試験は意図した待ち条件、画像比較は色、動画は映像経路を調べる。</text></svg>