<svg xmlns="http://www.w3.org/2000/svg" width="1200" height="677" viewBox="0 0 1200 677"><rect width="100%" height="100%" fill="white"/><text x="600.0" y="36.849999999999994" text-anchor="middle" font-family="Arial,Noto Sans JP,Meiryo,sans-serif" font-size="31" font-weight="700" fill="#231F20">説明用：画像Aの古いボールは100〜107に残っている</text><text x="429.0" y="93.85" text-anchor="middle" font-family="Arial,Noto Sans JP,Meiryo,sans-serif" font-size="21" font-weight="400" fill="#231F20">100</text><text x="477.0" y="93.85" text-anchor="middle" font-family="Arial,Noto Sans JP,Meiryo,sans-serif" font-size="21" font-weight="400" fill="#231F20">101</text><text x="525.0" y="93.85" text-anchor="middle" font-family="Arial,Noto Sans JP,Meiryo,sans-serif" font-size="21" font-weight="400" fill="#231F20">102</text><text x="573.0" y="93.85" text-anchor="middle" font-family="Arial,Noto Sans JP,Meiryo,sans-serif" font-size="21" font-weight="400" fill="#231F20">103</text><text x="621.0" y="93.85" text-anchor="middle" font-family="Arial,Noto Sans JP,Meiryo,sans-serif" font-size="21" font-weight="400" fill="#231F20">104</text><text x="669.0" y="93.85" text-anchor="middle" font-family="Arial,Noto Sans JP,Meiryo,sans-serif" font-size="21" font-weight="400" fill="#231F20">105</text><text x="717.0" y="93.85" text-anchor="middle" font-family="Arial,Noto Sans JP,Meiryo,sans-serif" font-size="21" font-weight="400" fill="#231F20">106</text><text x="765.0" y="93.85" text-anchor="middle" font-family="Arial,Noto Sans JP,Meiryo,sans-serif" font-size="21" font-weight="400" fill="#231F20">107</text><text x="813.0" y="93.85" text-anchor="middle" font-family="Arial,Noto Sans JP,Meiryo,sans-serif" font-size="21" font-weight="400" fill="#231F20">108</text><text x="861.0" y="93.85" text-anchor="middle" font-family="Arial,Noto Sans JP,Meiryo,sans-serif" font-size="21" font-weight="400" fill="#231F20">109</text><text x="909.0" y="93.85" text-anchor="middle" font-family="Arial,Noto Sans JP,Meiryo,sans-serif" font-size="21" font-weight="400" fill="#231F20">110</text><text x="957.0" y="93.85" text-anchor="middle" font-family="Arial,Noto Sans JP,Meiryo,sans-serif" font-size="21" font-weight="400" fill="#231F20">111</text><text x="1005.0" y="93.85" text-anchor="middle" font-family="Arial,Noto Sans JP,Meiryo,sans-serif" font-size="21" font-weight="400" fill="#231F20">112</text><text x="1053.0" y="93.85" text-anchor="middle" font-family="Arial,Noto Sans JP,Meiryo,sans-serif" font-size="21" font-weight="400" fill="#231F20">113</text><text x="382" y="162.1" text-anchor="end" font-family="Arial,Noto Sans JP,Meiryo,sans-serif" font-size="26" font-weight="400" fill="#231F20">Aに残る古い像</text><rect x="405" y="128" width="48" height="54" fill="#FFFFFF" stroke="#AAAAAA" stroke-width="2"/><rect x="453" y="128" width="48" height="54" fill="#FFFFFF" stroke="#AAAAAA" stroke-width="2"/><rect x="501" y="128" width="48" height="54" fill="#FFFFFF" stroke="#AAAAAA" stroke-width="2"/><rect x="549" y="128" width="48" height="54" fill="#FFFFFF" stroke="#AAAAAA" stroke-width="2"/><rect x="597" y="128" width="48" height="54" fill="#FFFFFF" stroke="#AAAAAA" stroke-width="2"/><rect x="645" y="128" width="48" height="54" fill="#FFFFFF" stroke="#AAAAAA" stroke-width="2"/><rect x="693" y="128" width="48" height="54" fill="#FFFFFF" stroke="#AAAAAA" stroke-width="2"/><rect x="741" y="128" width="48" height="54" fill="#FFFFFF" stroke="#AAAAAA" stroke-width="2"/><rect x="789" y="128" width="48" height="54" fill="#231F20" stroke="#AAAAAA" stroke-width="2"/><rect x="837" y="128" width="48" height="54" fill="#231F20" stroke="#AAAAAA" stroke-width="2"/><rect x="885" y="128" width="48" height="54" fill="#231F20" stroke="#AAAAAA" stroke-width="2"/><rect x="933" y="128" width="48" height="54" fill="#231F20" stroke="#AAAAAA" stroke-width="2"/><rect x="981" y="128" width="48" height="54" fill="#231F20" stroke="#AAAAAA" stroke-width="2"/><rect x="1029" y="128" width="48" height="54" fill="#231F20" stroke="#AAAAAA" stroke-width="2"/><text x="382" y="256.1" text-anchor="end" font-family="Arial,Noto Sans JP,Meiryo,sans-serif" font-size="26" font-weight="400" fill="#231F20">誤って103〜110を消す</text><rect x="405" y="222" width="48" height="54" fill="#FFFFFF" stroke="#AAAAAA" stroke-width="2"/><rect x="453" y="222" width="48" height="54" fill="#FFFFFF" stroke="#AAAAAA" stroke-width="2"/><rect x="501" y="222" width="48" height="54" fill="#FFFFFF" stroke="#AAAAAA" stroke-width="2"/><rect x="549" y="222" width="48" height="54" fill="#231F20" stroke="#AAAAAA" stroke-width="2"/><rect x="597" y="222" width="48" height="54" fill="#231F20" stroke="#AAAAAA" stroke-width="2"/><rect x="645" y="222" width="48" height="54" fill="#231F20" stroke="#AAAAAA" stroke-width="2"/><rect x="693" y="222" width="48" height="54" fill="#231F20" stroke="#AAAAAA" stroke-width="2"/><rect x="741" y="222" width="48" height="54" fill="#231F20" stroke="#AAAAAA" stroke-width="2"/><rect x="789" y="222" width="48" height="54" fill="#231F20" stroke="#AAAAAA" stroke-width="2"/><rect x="837" y="222" width="48" height="54" fill="#231F20" stroke="#AAAAAA" stroke-width="2"/><rect x="885" y="222" width="48" height="54" fill="#231F20" stroke="#AAAAAA" stroke-width="2"/><rect x="933" y="222" width="48" height="54" fill="#231F20" stroke="#AAAAAA" stroke-width="2"/><rect x="981" y="222" width="48" height="54" fill="#231F20" stroke="#AAAAAA" stroke-width="2"/><rect x="1029" y="222" width="48" height="54" fill="#231F20" stroke="#AAAAAA" stroke-width="2"/><text x="382" y="350.1" text-anchor="end" font-family="Arial,Noto Sans JP,Meiryo,sans-serif" font-size="26" font-weight="700" fill="#231F20">その後106〜113を描く</text><rect x="405" y="316" width="48" height="54" fill="#FFFFFF" stroke="#AAAAAA" stroke-width="2"/><rect x="453" y="316" width="48" height="54" fill="#FFFFFF" stroke="#AAAAAA" stroke-width="2"/><rect x="501" y="316" width="48" height="54" fill="#FFFFFF" stroke="#AAAAAA" stroke-width="2"/><rect x="549" y="316" width="48" height="54" fill="#231F20" stroke="#AAAAAA" stroke-width="2"/><rect x="597" y="316" width="48" height="54" fill="#231F20" stroke="#AAAAAA" stroke-width="2"/><rect x="645" y="316" width="48" height="54" fill="#231F20" stroke="#AAAAAA" stroke-width="2"/><rect x="693" y="316" width="48" height="54" fill="#FFFFFF" stroke="#AAAAAA" stroke-width="2"/><rect x="741" y="316" width="48" height="54" fill="#FFFFFF" stroke="#AAAAAA" stroke-width="2"/><rect x="789" y="316" width="48" height="54" fill="#FFFFFF" stroke="#AAAAAA" stroke-width="2"/><rect x="837" y="316" width="48" height="54" fill="#FFFFFF" stroke="#AAAAAA" stroke-width="2"/><rect x="885" y="316" width="48" height="54" fill="#FFFFFF" stroke="#AAAAAA" stroke-width="2"/><rect x="933" y="316" width="48" height="54" fill="#FFFFFF" stroke="#AAAAAA" stroke-width="2"/><rect x="981" y="316" width="48" height="54" fill="#FFFFFF" stroke="#AAAAAA" stroke-width="2"/><rect x="1029" y="316" width="48" height="54" fill="#FFFFFF" stroke="#AAAAAA" stroke-width="2"/><polyline points="405,311 549,311 549,375 405,375 405,311" fill="none" stroke="#1673C3" stroke-width="2"/><text x="477.0" y="401.9" text-anchor="middle" font-family="Arial,Noto Sans JP,Meiryo,sans-serif" font-size="24" font-weight="700" fill="#1673C3">消し残し</text><text x="382" y="472.1" text-anchor="end" font-family="Arial,Noto Sans JP,Meiryo,sans-serif" font-size="26" font-weight="400" fill="#231F20">正しく100〜107を消す</text><rect x="405" y="438" width="48" height="54" fill="#231F20" stroke="#AAAAAA" stroke-width="2"/><rect x="453" y="438" width="48" height="54" fill="#231F20" stroke="#AAAAAA" stroke-width="2"/><rect x="501" y="438" width="48" height="54" fill="#231F20" stroke="#AAAAAA" stroke-width="2"/><rect x="549" y="438" width="48" height="54" fill="#231F20" stroke="#AAAAAA" stroke-width="2"/><rect x="597" y="438" width="48" height="54" fill="#231F20" stroke="#AAAAAA" stroke-width="2"/><rect x="645" y="438" width="48" height="54" fill="#231F20" stroke="#AAAAAA" stroke-width="2"/><rect x="693" y="438" width="48" height="54" fill="#231F20" stroke="#AAAAAA" stroke-width="2"/><rect x="741" y="438" width="48" height="54" fill="#231F20" stroke="#AAAAAA" stroke-width="2"/><rect x="789" y="438" width="48" height="54" fill="#231F20" stroke="#AAAAAA" stroke-width="2"/><rect x="837" y="438" width="48" height="54" fill="#231F20" stroke="#AAAAAA" stroke-width="2"/><rect x="885" y="438" width="48" height="54" fill="#231F20" stroke="#AAAAAA" stroke-width="2"/><rect x="933" y="438" width="48" height="54" fill="#231F20" stroke="#AAAAAA" stroke-width="2"/><rect x="981" y="438" width="48" height="54" fill="#231F20" stroke="#AAAAAA" stroke-width="2"/><rect x="1029" y="438" width="48" height="54" fill="#231F20" stroke="#AAAAAA" stroke-width="2"/><text x="382" y="566.1" text-anchor="end" font-family="Arial,Noto Sans JP,Meiryo,sans-serif" font-size="26" font-weight="700" fill="#231F20">その後106〜113を描く</text><rect x="405" y="532" width="48" height="54" fill="#231F20" stroke="#AAAAAA" stroke-width="2"/><rect x="453" y="532" width="48" height="54" fill="#231F20" stroke="#AAAAAA" stroke-width="2"/><rect x="501" y="532" width="48" height="54" fill="#231F20" stroke="#AAAAAA" stroke-width="2"/><rect x="549" y="532" width="48" height="54" fill="#231F20" stroke="#AAAAAA" stroke-width="2"/><rect x="597" y="532" width="48" height="54" fill="#231F20" stroke="#AAAAAA" stroke-width="2"/><rect x="645" y="532" width="48" height="54" fill="#231F20" stroke="#AAAAAA" stroke-width="2"/><rect x="693" y="532" width="48" height="54" fill="#FFFFFF" stroke="#AAAAAA" stroke-width="2"/><rect x="741" y="532" width="48" height="54" fill="#FFFFFF" stroke="#AAAAAA" stroke-width="2"/><rect x="789" y="532" width="48" height="54" fill="#FFFFFF" stroke="#AAAAAA" stroke-width="2"/><rect x="837" y="532" width="48" height="54" fill="#FFFFFF" stroke="#AAAAAA" stroke-width="2"/><rect x="885" y="532" width="48" height="54" fill="#FFFFFF" stroke="#AAAAAA" stroke-width="2"/><rect x="933" y="532" width="48" height="54" fill="#FFFFFF" stroke="#AAAAAA" stroke-width="2"/><rect x="981" y="532" width="48" height="54" fill="#FFFFFF" stroke="#AAAAAA" stroke-width="2"/><rect x="1029" y="532" width="48" height="54" fill="#FFFFFF" stroke="#AAAAAA" stroke-width="2"/><text x="600.0" y="645.3" text-anchor="middle" font-family="Arial,Noto Sans JP,Meiryo,sans-serif" font-size="28" font-weight="400" fill="#1673C3">白いマス＝ボール。直前のBの履歴では、Aの古い位置を消せない。</text><text x="600.0" y="423.9" text-anchor="middle" font-family="Arial,Noto Sans JP,Meiryo,sans-serif" font-size="24" font-weight="400" fill="#1673C3">下の二段：最初のAへ、正しい履歴を使って処理した場合</text></svg>